<?xml version="1.0" standalone="no"?>
<!DOCTYPE svg PUBLIC "-//W3C//DTD SVG 20010904//EN"
 "http://www.w3.org/TR/2001/REC-SVG-20010904/DTD/svg10.dtd">
<svg version="1.0" xmlns="http://www.w3.org/2000/svg"
 width="260.000000pt" height="260.000000pt" viewBox="0 0 260.000000 260.000000"
 preserveAspectRatio="xMidYMid meet">
<metadata>
Created by potrace 1.11, written by Peter Selinger 2001-2013
</metadata>
<g transform="translate(0.000000,260.000000) scale(0.100000,-0.100000)"
fill="#000000" stroke="none">
<path d="M1205 2489 c-162 -12 -308 -54 -460 -132 -422 -219 -686 -703 -636
-1171 41 -391 225 -707 531 -911 206 -138 410 -199 660 -199 250 0 454 61 660
199 306 204 491 522 531 913 42 404 -146 823 -480 1071 -233 173 -507 251
-806 230z m-1 -567 c96 -55 104 -177 29 -422 -44 -142 -48 -160 -35 -160 17 0
336 333 431 451 51 63 101 120 111 127 26 19 203 28 258 13 51 -14 54 -32 14
-87 -29 -39 -181 -183 -367 -348 -55 -49 -108 -96 -118 -105 -16 -16 -16 -20
3 -96 16 -61 22 -123 26 -255 6 -203 13 -241 66 -321 21 -33 38 -64 38 -68 0
-17 -32 -21 -147 -21 -212 0 -234 32 -213 318 7 86 10 177 8 202 l-3 45 -100
-100 c-112 -111 -147 -168 -190 -307 -30 -96 -53 -125 -112 -139 -44 -10 -206
-10 -243 0 -55 15 -37 66 124 343 82 143 125 241 166 386 48 171 70 287 77
417 8 157 8 159 86 150 34 -4 75 -14 91 -23z"/>
</g>
</svg>
