<?xml version="1.0" standalone="no"?>
<!DOCTYPE svg PUBLIC "-//W3C//DTD SVG 20010904//EN"
 "http://www.w3.org/TR/2001/REC-SVG-20010904/DTD/svg10.dtd">
<svg version="1.0" xmlns="http://www.w3.org/2000/svg"
 width="93.000000pt" height="93.000000pt" viewBox="0 0 93.000000 93.000000"
 preserveAspectRatio="xMidYMid meet">
<metadata>
Created by potrace 1.11, written by Peter Selinger 2001-2013
</metadata>
<g transform="translate(0.000000,93.000000) scale(0.100000,-0.100000)"
fill="#000000" stroke="none">
<path d="M345 877 c-119 -40 -216 -125 -268 -234 -26 -57 -32 -83 -35 -159 -7
-142 32 -237 133 -333 164 -155 416 -155 580 0 101 96 140 191 133 333 -3 76
-9 102 -35 159 -42 89 -121 168 -210 210 -59 27 -80 32 -163 34 -59 2 -110 -2
-135 -10z m74 -188 c48 -17 51 -51 15 -176 -12 -43 15 -23 103 77 l88 100 53
0 c77 0 77 0 -76 -143 l-62 -58 10 -42 c5 -23 10 -69 10 -102 0 -39 6 -69 16
-83 21 -30 16 -34 -42 -34 -67 -2 -77 15 -69 115 6 75 6 78 -13 68 -28 -15
-71 -75 -88 -123 -18 -52 -27 -58 -86 -58 -61 0 -61 8 -4 113 51 95 82 188 92
279 6 58 11 78 18 78 2 0 17 -5 35 -11z"/>
</g>
</svg>
